<?xml version="1.0" encoding="iso-8859-1"?>
<!-- Uploaded to: SVG Repo, www.svgrepo.com, Generator: SVG Repo Mixer Tools -->
<svg height="800px" width="800px" version="1.1" id="Layer_1" xmlns="http://www.w3.org/2000/svg" xmlns:xlink="http://www.w3.org/1999/xlink" 
	 viewBox="0 0 512 512" xml:space="preserve">
<path style="fill:#26150C;" d="M412.927,255.999c8.895-9.768,16.941-19.581,24.003-29.338
	c31.637-43.711,40.227-81.792,24.186-107.226c-11.661-18.488-35.134-28.26-67.884-28.26c-18.805,0-40.056,3.166-62.777,9.129
	c-2.493-7.875-5.185-15.442-8.077-22.647C302.281,27.579,274.653,0,244.584,0c-30.071,0-57.697,27.579-77.794,77.657
	c-2.892,7.206-5.584,14.773-8.077,22.647c-22.721-5.964-43.973-9.129-62.777-9.129c-32.75,0-56.224,9.772-67.885,28.26
	C12.01,144.87,20.6,182.949,52.237,226.661c7.062,9.757,15.108,19.57,24.003,29.338c-8.895,9.768-16.941,19.581-24.003,29.338
	C20.6,329.049,12.01,367.129,28.051,392.564c11.661,18.488,35.134,28.26,67.883,28.26c18.805,0,40.057-3.166,62.778-9.129
	c2.493,7.875,5.185,15.442,8.077,22.648C186.886,484.421,214.513,512,244.584,512c30.07,0,57.697-27.579,77.793-77.657
	c2.892-7.207,5.584-14.773,8.077-22.65c22.72,5.964,43.971,9.129,62.777,9.13c0.004,0,0.005,0,0.01,0
	c32.742,0,56.215-9.772,67.875-28.26c16.041-25.435,7.451-63.514-24.186-107.226C429.868,275.58,421.822,265.769,412.927,255.999z
	 M393.231,107.17c18.814,0,43.515,3.608,54.357,20.798c12.142,19.252,3.535,51.806-23.613,89.317
	c-6.512,8.996-13.904,18.051-22.068,27.079c-15.512-15.765-33.166-31.304-52.483-46.19c-2.773-29.455-7.662-57.357-14.483-82.565
	C356.089,110.098,375.814,107.17,393.231,107.17z M351.065,219.85c14.496,11.785,27.862,23.908,39.87,36.149
	c-12.007,12.242-25.374,24.363-39.87,36.148c0.683-11.876,1.036-23.947,1.036-36.149S351.748,231.726,351.065,219.85z
	 M331.962,185.219c-9.681-6.914-19.702-13.651-30.024-20.161c-13.083-8.251-26.281-15.897-39.454-22.911
	c19.553-9.053,38.748-16.499,57.077-22.164C325.002,140.112,329.171,162.064,331.962,185.219z M181.633,83.614
	c17.246-42.973,40.189-67.62,62.951-67.62s45.705,24.647,62.95,67.62c2.693,6.711,5.203,13.758,7.537,21.088
	c-22.607,6.973-46.394,16.513-70.488,28.301c-24.094-11.788-47.88-21.326-70.488-28.301
	C176.428,97.372,178.939,90.325,181.633,83.614z M169.604,119.983c18.329,5.665,37.525,13.112,57.077,22.164
	c-13.173,7.014-26.372,14.66-39.454,22.911c-10.321,6.51-20.344,13.247-30.024,20.161
	C159.994,162.064,164.163,140.112,169.604,119.983z M65.193,217.285c-27.149-37.511-35.755-70.065-23.613-89.317
	c10.842-17.19,35.543-20.798,54.357-20.798c17.417,0,37.142,2.928,58.292,8.438c-6.821,25.207-11.709,53.11-14.483,82.565
	c-19.317,14.886-36.972,30.426-52.483,46.19C79.097,235.335,71.703,226.281,65.193,217.285z M138.101,292.149
	c-14.496-11.785-27.862-23.908-39.87-36.148c12.007-12.242,25.374-24.364,39.87-36.149c-0.683,11.875-1.036,23.946-1.036,36.149
	C137.065,268.204,137.417,280.273,138.101,292.149z M95.934,404.83c-18.813,0-43.514-3.608-54.356-20.798
	c-12.142-19.252-3.535-51.806,23.613-89.317c6.512-8.996,13.904-18.051,22.068-27.079c15.512,15.765,33.166,31.303,52.483,46.19
	c2.773,29.455,7.662,57.358,14.483,82.566C133.077,401.902,113.351,404.83,95.934,404.83z M157.204,326.78
	c9.681,6.914,19.702,13.651,30.024,20.161c13.083,8.251,26.281,15.897,39.454,22.911c-19.553,9.053-38.749,16.499-57.078,22.164
	C164.163,371.887,159.994,349.935,157.204,326.78z M307.533,428.386c-17.245,42.973-40.188,67.62-62.95,67.62
	s-45.705-24.647-62.951-67.62c-2.693-6.711-5.204-13.758-7.537-21.089c22.608-6.973,46.394-16.513,70.488-28.301
	c24.093,11.788,47.88,21.326,70.487,28.3C312.738,414.627,310.227,421.674,307.533,428.386z M319.562,392.015
	c-18.329-5.665-37.524-13.112-57.077-22.163c13.173-7.014,26.371-14.66,39.453-22.911c10.321-6.51,20.344-13.247,30.024-20.161
	C329.171,349.935,325.002,371.886,319.562,392.015z M293.407,333.412c-16.218,10.229-32.587,19.502-48.823,27.741
	c-16.237-8.239-32.606-17.512-48.824-27.741c-14.205-8.959-27.82-18.346-40.711-28.028c-1.313-16.067-1.99-32.591-1.99-49.385
	s0.677-33.317,1.99-49.385c12.891-9.682,26.505-19.07,40.711-28.029c16.218-10.229,32.587-19.502,48.824-27.741
	c16.236,8.239,32.605,17.512,48.824,27.741c14.205,8.959,27.82,18.346,40.71,28.028c1.313,16.067,1.99,32.591,1.99,49.385
	s-0.677,33.317-1.99,49.385C321.226,315.066,307.611,324.453,293.407,333.412z M447.587,384.032
	c-10.842,17.189-35.536,20.798-54.348,20.798c-0.002,0-0.005,0-0.007,0c-17.418-0.001-37.143-2.93-58.292-8.439
	c6.821-25.207,11.709-53.109,14.483-82.564c19.317-14.886,36.972-30.426,52.483-46.19c8.164,9.028,15.557,18.083,22.068,27.079
	C451.122,332.225,459.728,364.779,447.587,384.032z"/>
<circle style="fill:#66E6FF;" cx="244.579" cy="255.998" r="59.732"/>
<path style="fill:#26150C;" d="M244.584,323.727c-37.345,0-67.729-30.383-67.729-67.729s30.383-67.728,67.729-67.728
	s67.728,30.382,67.728,67.728S281.928,323.727,244.584,323.727z M244.584,204.266c-28.527,0-51.735,23.208-51.735,51.734
	c0,28.527,23.208,51.735,51.735,51.735c28.526,0,51.734-23.208,51.734-51.735C296.316,227.474,273.109,204.266,244.584,204.266z"/>
<circle style="fill:#FFCA66;" cx="454.355" cy="123.697" r="29.5"/>
<path style="fill:#26150C;" d="M454.351,161.199c-20.677,0-37.497-16.82-37.497-37.497s16.82-37.498,37.497-37.498
	s37.497,16.821,37.497,37.498S475.028,161.199,454.351,161.199z M454.351,102.198c-11.857,0-21.503,9.646-21.503,21.504
	c0,11.857,9.646,21.503,21.503,21.503s21.503-9.646,21.503-21.503C475.854,111.844,466.208,102.198,454.351,102.198z"/>
<circle style="fill:#FF8095;" cx="57.653" cy="220.929" r="29.5"/>
<g>
	<path style="opacity:0.15;fill:#293133;enable-background:new    ;" d="M210.172,255.999c0-29.347,21.171-53.733,49.068-58.763
		c-3.462-0.624-7.021-0.968-10.663-0.968c-32.989,0-59.731,26.743-59.731,59.731c0,32.989,26.743,59.731,59.731,59.731
		c3.641,0,7.2-0.343,10.663-0.968C231.342,309.733,210.172,285.347,210.172,255.999z"/>
	<path style="opacity:0.15;fill:#293133;enable-background:new    ;" d="M450.17,123.702c0-12.532,7.817-23.231,18.838-27.505
		c-3.308-1.284-6.901-1.995-10.663-1.995c-16.292,0-29.5,13.208-29.5,29.5s13.208,29.5,29.5,29.5c3.762,0,7.355-0.711,10.663-1.995
		C457.988,146.932,450.17,136.233,450.17,123.702z"/>
	<path style="opacity:0.15;fill:#293133;enable-background:new    ;" d="M53.469,220.933c0-12.532,7.817-23.23,18.838-27.505
		c-3.308-1.284-6.901-1.995-10.663-1.995c-16.292,0-29.5,13.208-29.5,29.5s13.208,29.5,29.5,29.5c3.762,0,7.355-0.711,10.663-1.995
		C61.286,244.164,53.469,233.465,53.469,220.933z"/>
</g>
<path style="fill:#26150C;" d="M57.649,258.431c-20.677,0-37.497-16.82-37.497-37.497s16.82-37.497,37.497-37.497
	s37.498,16.82,37.498,37.497S78.326,258.431,57.649,258.431z M57.649,199.43c-11.857,0-21.503,9.646-21.503,21.503
	s9.646,21.503,21.503,21.503c11.858,0,21.504-9.646,21.504-21.503C79.153,209.077,69.508,199.43,57.649,199.43z"/>
</svg>